# Blender v2.79 (sub 0) OBJ File: ''
# www.blender.org
mtllib PlayerColliderShape.mtl
o Cube
v 0.280000 0.448000 -0.280000
v 0.280000 0.448000 0.280000
v -0.280000 0.448000 0.280000
v -0.280000 0.448000 -0.280000
v 0.280000 1.792000 -0.280000
v 0.280000 1.792000 0.280000
v -0.280000 1.792000 0.280000
v -0.280000 1.792000 -0.280000
v 0.420000 0.448000 -0.000000
v -0.420000 0.448000 -0.000000
v 0.420000 1.792000 0.000000
v -0.420000 1.792000 -0.000000
v 0.000000 0.448000 -0.420000
v 0.000000 0.448000 0.420000
v 0.000000 1.792000 -0.420000
v -0.000000 1.792000 0.420000
v 0.000000 2.240000 -0.000000
v 0.000000 0.000000 -0.000000
vn -0.6854 -0.6425 0.3427
vn -0.6854 0.6425 0.3427
vn 0.8944 -0.0000 0.4472
vn -0.4472 -0.0000 0.8944
vn -0.8944 -0.0000 -0.4472
vn -0.4472 0.0000 -0.8944
vn -0.8944 -0.0000 0.4472
vn 0.8944 -0.0000 -0.4472
vn -0.3427 0.6425 -0.6854
vn -0.3427 -0.6425 -0.6854
vn 0.3427 -0.6425 -0.6854
vn 0.3427 0.6425 -0.6854
vn 0.4472 0.0000 -0.8944
vn 0.4472 -0.0000 0.8944
vn 0.6854 0.6425 0.3427
vn 0.6854 -0.6425 0.3427
vn -0.3427 -0.6425 0.6854
vn 0.3427 -0.6425 0.6854
vn -0.6854 -0.6425 -0.3427
vn 0.6854 -0.6425 -0.3427
vn 0.3427 0.6425 0.6854
vn 0.6854 0.6425 -0.3427
vn -0.3427 0.6425 0.6854
vn -0.6854 0.6425 -0.3427
usemtl Material
s off
f 18//1 3//1 10//1
f 17//2 12//2 7//2
f 9//3 11//3 6//3 2//3
f 14//4 16//4 7//4 3//4
f 10//5 12//5 8//5 4//5
f 15//6 13//6 4//6 8//6
f 3//7 7//7 12//7 10//7
f 1//8 5//8 11//8 9//8
f 15//9 8//9 17//9
f 13//10 18//10 4//10
f 1//11 18//11 13//11
f 5//12 15//12 17//12
f 5//13 1//13 13//13 15//13
f 2//14 6//14 16//14 14//14
f 11//15 17//15 6//15
f 9//16 2//16 18//16
f 3//17 18//17 14//17
f 18//18 2//18 14//18
f 4//19 18//19 10//19
f 18//20 1//20 9//20
f 6//21 17//21 16//21
f 17//22 11//22 5//22
f 7//23 16//23 17//23
f 17//24 8//24 12//24
